<?xml version="1.0" encoding="UTF-8"?>
<svg xmlns="http://www.w3.org/2000/svg" xmlns:xlink="http://www.w3.org/1999/xlink" width="1920" height="1080" viewBox="0 0 1920 1080">
<defs>
<g>
<g id="glyph-0-0">
<path d="M 2.449219 0 L 2.449219 -5.960938 L 0.222656 -5.960938 L 0.222656 -6.761719 L 5.578125 -6.761719 L 5.578125 -5.960938 L 3.34375 -5.960938 L 3.34375 0 Z "/>
</g>
<g id="glyph-0-1">
<path d="M 0.621094 0 L 0.621094 -6.761719 L 1.453125 -6.761719 L 1.453125 -4.335938 C 1.839844 -4.785156 2.328125 -5.007812 2.917969 -5.007812 C 3.28125 -5.007812 3.597656 -4.9375 3.863281 -4.792969 C 4.132812 -4.652344 4.324219 -4.453125 4.4375 -4.199219 C 4.554688 -3.949219 4.613281 -3.582031 4.613281 -3.101562 L 4.613281 0 L 3.78125 0 L 3.78125 -3.101562 C 3.78125 -3.519531 3.691406 -3.820312 3.511719 -4.007812 C 3.332031 -4.199219 3.078125 -4.292969 2.75 -4.292969 C 2.503906 -4.292969 2.269531 -4.230469 2.054688 -4.101562 C 1.835938 -3.972656 1.683594 -3.800781 1.589844 -3.582031 C 1.5 -3.363281 1.453125 -3.0625 1.453125 -2.679688 L 1.453125 0 Z "/>
</g>
<g id="glyph-0-2">
<path d="M 3.976562 -1.578125 L 4.832031 -1.472656 C 4.699219 -0.96875 4.445312 -0.582031 4.082031 -0.304688 C 3.714844 -0.0273438 3.246094 0.109375 2.679688 0.109375 C 1.964844 0.109375 1.394531 -0.109375 0.976562 -0.550781 C 0.554688 -0.992188 0.347656 -1.609375 0.347656 -2.40625 C 0.347656 -3.230469 0.558594 -3.871094 0.980469 -4.324219 C 1.40625 -4.78125 1.957031 -5.007812 2.632812 -5.007812 C 3.289062 -5.007812 3.824219 -4.785156 4.238281 -4.339844 C 4.652344 -3.894531 4.859375 -3.265625 4.859375 -2.457031 C 4.859375 -2.410156 4.859375 -2.335938 4.855469 -2.238281 L 1.203125 -2.238281 C 1.234375 -1.699219 1.386719 -1.285156 1.660156 -1 C 1.933594 -0.714844 2.273438 -0.570312 2.683594 -0.570312 C 2.988281 -0.570312 3.246094 -0.652344 3.464844 -0.8125 C 3.679688 -0.972656 3.847656 -1.226562 3.976562 -1.578125 M 1.25 -2.917969 L 3.984375 -2.917969 C 3.949219 -3.332031 3.84375 -3.640625 3.671875 -3.847656 C 3.40625 -4.164062 3.0625 -4.324219 2.640625 -4.324219 C 2.261719 -4.324219 1.941406 -4.199219 1.679688 -3.941406 C 1.421875 -3.6875 1.277344 -3.347656 1.25 -2.917969 Z "/>
</g>
<g id="glyph-0-3">
</g>
<g id="glyph-0-4">
<path d="M 0.878906 0 L 0.878906 -6.761719 L 1.773438 -6.761719 L 1.773438 0 Z "/>
</g>
<g id="glyph-0-5">
<path d="M -0.015625 0 L 2.582031 -6.761719 L 3.546875 -6.761719 L 6.3125 0 L 5.292969 0 L 4.503906 -2.046875 L 1.679688 -2.046875 L 0.9375 0 L -0.015625 0 M 1.9375 -2.777344 L 4.230469 -2.777344 L 3.523438 -4.648438 C 3.308594 -5.21875 3.148438 -5.683594 3.042969 -6.050781 C 2.957031 -5.617188 2.835938 -5.1875 2.679688 -4.757812 Z "/>
</g>
<g id="glyph-0-6">
<path d="M 0.699219 0 L 0.699219 -6.761719 L 2.046875 -6.761719 L 3.648438 -1.972656 C 3.796875 -1.527344 3.902344 -1.195312 3.96875 -0.972656 C 4.046875 -1.21875 4.167969 -1.582031 4.328125 -2.058594 L 5.949219 -6.761719 L 7.152344 -6.761719 L 7.152344 0 L 6.289062 0 L 6.289062 -5.65625 L 4.324219 0 L 3.519531 0 L 1.5625 -5.753906 L 1.5625 0 Z "/>
</g>
<g id="glyph-0-7">
<path d="M 0.613281 0 L 0.613281 -4.898438 L 1.359375 -4.898438 L 1.359375 -4.15625 C 1.550781 -4.503906 1.726562 -4.730469 1.886719 -4.84375 C 2.050781 -4.953125 2.226562 -5.007812 2.421875 -5.007812 C 2.699219 -5.007812 2.984375 -4.917969 3.273438 -4.742188 L 2.988281 -3.96875 C 2.785156 -4.089844 2.582031 -4.148438 2.378906 -4.148438 C 2.199219 -4.148438 2.035156 -4.09375 1.890625 -3.988281 C 1.746094 -3.878906 1.644531 -3.726562 1.582031 -3.53125 C 1.488281 -3.238281 1.441406 -2.914062 1.441406 -2.5625 L 1.441406 0 Z "/>
</g>
<g id="glyph-0-8">
<path d="M 0.628906 -5.804688 L 0.628906 -6.761719 L 1.457031 -6.761719 L 1.457031 -5.804688 L 0.628906 -5.804688 M 0.628906 0 L 0.628906 -4.898438 L 1.457031 -4.898438 L 1.457031 0 Z "/>
</g>
<g id="glyph-0-9">
<path d="M 3.816406 -0.605469 C 3.511719 -0.34375 3.214844 -0.160156 2.929688 -0.0507812 C 2.644531 0.0585938 2.339844 0.109375 2.015625 0.109375 C 1.476562 0.109375 1.0625 -0.0195312 0.773438 -0.285156 C 0.484375 -0.546875 0.339844 -0.882812 0.339844 -1.292969 C 0.339844 -1.53125 0.394531 -1.75 0.503906 -1.949219 C 0.613281 -2.148438 0.757812 -2.304688 0.933594 -2.425781 C 1.109375 -2.546875 1.308594 -2.636719 1.53125 -2.699219 C 1.695312 -2.742188 1.941406 -2.78125 2.269531 -2.820312 C 2.9375 -2.902344 3.433594 -2.996094 3.75 -3.109375 C 3.753906 -3.222656 3.753906 -3.292969 3.753906 -3.324219 C 3.753906 -3.664062 3.675781 -3.902344 3.519531 -4.039062 C 3.304688 -4.226562 2.992188 -4.320312 2.574219 -4.320312 C 2.183594 -4.320312 1.894531 -4.253906 1.707031 -4.117188 C 1.523438 -3.980469 1.386719 -3.738281 1.296875 -3.390625 L 0.484375 -3.5 C 0.558594 -3.847656 0.679688 -4.128906 0.847656 -4.339844 C 1.015625 -4.554688 1.261719 -4.71875 1.582031 -4.835938 C 1.902344 -4.949219 2.273438 -5.007812 2.691406 -5.007812 C 3.109375 -5.007812 3.449219 -4.957031 3.710938 -4.859375 C 3.972656 -4.761719 4.164062 -4.636719 4.289062 -4.488281 C 4.410156 -4.339844 4.496094 -4.152344 4.546875 -3.925781 C 4.574219 -3.78125 4.589844 -3.527344 4.589844 -3.160156 L 4.589844 -2.050781 C 4.589844 -1.28125 4.605469 -0.792969 4.640625 -0.589844 C 4.675781 -0.382812 4.746094 -0.1875 4.851562 0 L 3.984375 0 C 3.898438 -0.171875 3.84375 -0.375 3.816406 -0.605469 M 3.75 -2.457031 C 3.449219 -2.335938 2.996094 -2.230469 2.394531 -2.144531 C 2.050781 -2.09375 1.8125 -2.039062 1.667969 -1.976562 C 1.527344 -1.917969 1.417969 -1.828125 1.34375 -1.707031 C 1.265625 -1.589844 1.226562 -1.457031 1.226562 -1.3125 C 1.226562 -1.09375 1.308594 -0.910156 1.476562 -0.761719 C 1.644531 -0.613281 1.890625 -0.539062 2.214844 -0.539062 C 2.53125 -0.539062 2.816406 -0.609375 3.066406 -0.75 C 3.316406 -0.890625 3.5 -1.082031 3.617188 -1.324219 C 3.703125 -1.511719 3.75 -1.789062 3.75 -2.152344 Z "/>
</g>
<g id="glyph-0-10">
<path d="M 0.621094 0 L 0.621094 -4.898438 L 1.371094 -4.898438 L 1.371094 -4.199219 C 1.730469 -4.738281 2.25 -5.007812 2.929688 -5.007812 C 3.222656 -5.007812 3.496094 -4.953125 3.742188 -4.847656 C 3.988281 -4.742188 4.175781 -4.605469 4.296875 -4.429688 C 4.421875 -4.257812 4.507812 -4.054688 4.554688 -3.816406 C 4.585938 -3.664062 4.601562 -3.394531 4.601562 -3.011719 L 4.601562 0 L 3.773438 0 L 3.773438 -2.980469 C 3.773438 -3.316406 3.738281 -3.570312 3.675781 -3.738281 C 3.609375 -3.90625 3.496094 -4.039062 3.332031 -4.136719 C 3.167969 -4.238281 2.972656 -4.289062 2.753906 -4.289062 C 2.398438 -4.289062 2.09375 -4.175781 1.835938 -3.953125 C 1.582031 -3.726562 1.453125 -3.300781 1.453125 -2.675781 L 1.453125 0 Z "/>
</g>
<g id="glyph-0-11">
<path d="M 0.46875 0.40625 L 1.277344 0.527344 C 1.3125 0.773438 1.40625 0.957031 1.558594 1.070312 C 1.765625 1.222656 2.046875 1.300781 2.402344 1.300781 C 2.785156 1.300781 3.082031 1.222656 3.292969 1.070312 C 3.5 0.917969 3.644531 0.699219 3.714844 0.425781 C 3.761719 0.253906 3.78125 -0.101562 3.777344 -0.640625 C 3.414062 -0.214844 2.960938 0 2.421875 0 C 1.746094 0 1.226562 -0.242188 0.859375 -0.730469 C 0.488281 -1.214844 0.304688 -1.796875 0.304688 -2.476562 C 0.304688 -2.945312 0.390625 -3.375 0.558594 -3.769531 C 0.726562 -4.164062 0.972656 -4.46875 1.292969 -4.683594 C 1.613281 -4.898438 1.992188 -5.007812 2.425781 -5.007812 C 3.003906 -5.007812 3.480469 -4.773438 3.855469 -4.308594 L 3.855469 -4.898438 L 4.621094 -4.898438 L 4.621094 -0.664062 C 4.621094 0.0976562 4.542969 0.636719 4.386719 0.957031 C 4.234375 1.273438 3.988281 1.527344 3.648438 1.710938 C 3.3125 1.894531 2.898438 1.988281 2.40625 1.988281 C 1.824219 1.988281 1.351562 1.855469 0.992188 1.59375 C 0.632812 1.332031 0.457031 0.933594 0.46875 0.40625 M 1.15625 -2.535156 C 1.15625 -1.894531 1.285156 -1.425781 1.539062 -1.128906 C 1.796875 -0.835938 2.113281 -0.6875 2.5 -0.6875 C 2.878906 -0.6875 3.199219 -0.832031 3.457031 -1.128906 C 3.714844 -1.421875 3.847656 -1.882812 3.847656 -2.507812 C 3.847656 -3.109375 3.714844 -3.558594 3.445312 -3.863281 C 3.179688 -4.167969 2.859375 -4.320312 2.484375 -4.320312 C 2.117188 -4.320312 1.804688 -4.171875 1.542969 -3.871094 C 1.285156 -3.570312 1.15625 -3.125 1.15625 -2.535156 Z "/>
</g>
<g id="glyph-0-12">
<path d="M 0.605469 0 L 0.605469 -6.761719 L 1.433594 -6.761719 L 1.433594 0 Z "/>
</g>
</g>
</defs>
<g fill="rgb(0%, 0%, 0%)" fill-opacity="1">
<use xlink:href="#glyph-0-0" x="30" y="28.548828"/>
<use xlink:href="#glyph-0-1" x="36" y="28.548828"/>
<use xlink:href="#glyph-0-2" x="41" y="28.548828"/>
<use xlink:href="#glyph-0-3" x="46" y="28.548828"/>
<use xlink:href="#glyph-0-4" x="49" y="28.548828"/>
<use xlink:href="#glyph-0-5" x="52" y="28.548828"/>
<use xlink:href="#glyph-0-6" x="58" y="28.548828"/>
<use xlink:href="#glyph-0-3" x="66" y="28.548828"/>
<use xlink:href="#glyph-0-0" x="68" y="28.548828"/>
<use xlink:href="#glyph-0-7" x="73" y="28.548828"/>
<use xlink:href="#glyph-0-8" x="76" y="28.548828"/>
<use xlink:href="#glyph-0-9" x="78" y="28.548828"/>
<use xlink:href="#glyph-0-10" x="83" y="28.548828"/>
<use xlink:href="#glyph-0-11" x="88" y="28.548828"/>
<use xlink:href="#glyph-0-12" x="93" y="28.548828"/>
<use xlink:href="#glyph-0-2" x="95" y="28.548828"/>
</g>
</svg>
